<svg width="512" height="136" viewBox="0 0 512 136" version="1.1" xmlns="http://www.w3.org/2000/svg" xmlns:xlink="http://www.w3.org/1999/xlink">
<title>Text</title>
<desc>Created using Figma</desc>
<g id="Canvas" transform="matrix(2.3814 0 0 2.3814 1057.34 397.693)">
<g id="Text">
<g id="Logo ">
<g id="KNOW BD NEW" filter="url(#filter0_d)">
<use xlink:href="#path0_fill" transform="matrix(0.997564 -0.0697565 0.0697565 0.997564 -439.971 -158.362)" fill="#424D64"/>
</g>
<g id="KNOWBASE" filter="url(#filter1_i)">
<use xlink:href="#path1_fill" transform="translate(-437 -170)" fill="#383838"/>
<use xlink:href="#path2_fill" transform="translate(-437 -170)" fill="#E2E2E2"/>
</g>
</g>
</g>
</g>
<defs>
<filter id="filter0_d" filterUnits="userSpaceOnUse" x="-444" y="-167" width="129" height="57" color-interpolation-filters="sRGB">
<feFlood flood-opacity="0" result="BackgroundImageFix"/>
<feColorMatrix in="SourceAlpha" type="matrix" values="0 0 0 0 0 0 0 0 0 0 0 0 0 0 0 0 0 0 255 0"/>
<feOffset dx="0" dy="4"/>
<feGaussianBlur stdDeviation="2"/>
<feColorMatrix type="matrix" values="0 0 0 0 0 0 0 0 0 0 0 0 0 0 0 0 0 0 0.25 0"/>
<feBlend mode="normal" in2="BackgroundImageFix" result="effect1_dropShadow"/>
<feBlend mode="normal" in="SourceGraphic" in2="effect1_dropShadow" result="shape"/>
</filter>
<filter id="filter1_i" filterUnits="userSpaceOnUse" x="-438" y="-157" width="213" height="33" color-interpolation-filters="sRGB">
<feFlood flood-opacity="0" result="BackgroundImageFix"/>
<feBlend mode="normal" in="SourceGraphic" in2="BackgroundImageFix" result="shape"/>
<feColorMatrix in="SourceAlpha" type="matrix" values="0 0 0 0 0 0 0 0 0 0 0 0 0 0 0 0 0 0 255 0" result="hardAlpha"/>
<feOffset dx="0" dy="4"/>
<feGaussianBlur stdDeviation="2"/>
<feComposite in2="hardAlpha" operator="arithmetic" k2="-1" k3="1"/>
<feColorMatrix type="matrix" values="0 0 0 0 0 0 0 0 0 0 0 0 0 0 0 0 0 0 0.25 0"/>
<feBlend mode="normal" in2="shape" result="effect1_innerShadow"/>
</filter>
<path id="path0_fill" d="M 0 0L 117.896 0L 117.896 40.1852L 0 40.1852L 0 0Z"/>
<path id="path1_fill" d="M 117.586 13.616L 126.952 13.616C 128.38 13.616 129.696 13.728 130.9 13.952C 132.132 14.148 133.196 14.512 134.092 15.044C 135.016 15.576 135.73 16.276 136.234 17.144C 136.766 18.012 137.032 19.104 137.032 20.42C 137.032 21.036 136.934 21.652 136.738 22.268C 136.57 22.884 136.304 23.458 135.94 23.99C 135.576 24.522 135.1 24.998 134.512 25.418C 133.924 25.838 133.238 26.146 132.454 26.342L 132.454 26.51C 134.414 26.874 135.884 27.574 136.864 28.61C 137.872 29.646 138.376 31.088 138.376 32.936C 138.376 34.336 138.096 35.54 137.536 36.548C 137.004 37.556 136.248 38.396 135.268 39.068C 134.316 39.712 133.196 40.202 131.908 40.538C 130.62 40.846 129.234 41 127.75 41L 117.586 41L 117.586 13.616ZM 126.658 24.662C 128.17 24.662 129.262 24.368 129.934 23.78C 130.634 23.164 130.984 22.338 130.984 21.302C 130.984 20.266 130.634 19.524 129.934 19.076C 129.234 18.628 128.156 18.404 126.7 18.404L 123.76 18.404L 123.76 24.662L 126.658 24.662ZM 127.246 36.212C 130.634 36.212 132.328 34.966 132.328 32.474C 132.328 31.27 131.908 30.402 131.068 29.87C 130.228 29.31 128.954 29.03 127.246 29.03L 123.76 29.03L 123.76 36.212L 127.246 36.212ZM 154.607 29.66L 153.977 27.14C 153.585 25.768 153.207 24.312 152.843 22.772C 152.479 21.232 152.115 19.748 151.751 18.32L 151.583 18.32C 151.247 19.776 150.897 21.274 150.533 22.814C 150.197 24.326 149.833 25.768 149.441 27.14L 148.769 29.66L 154.607 29.66ZM 155.867 34.49L 147.509 34.49L 145.829 41L 139.529 41L 148.097 13.616L 155.531 13.616L 164.099 41L 157.547 41L 155.867 34.49ZM 168.855 33.314C 169.835 34.154 170.913 34.84 172.089 35.372C 173.293 35.904 174.469 36.17 175.617 36.17C 176.905 36.17 177.857 35.932 178.473 35.456C 179.117 34.98 179.439 34.336 179.439 33.524C 179.439 33.104 179.341 32.74 179.145 32.432C 178.977 32.124 178.711 31.858 178.347 31.634C 178.011 31.382 177.591 31.158 177.087 30.962C 176.611 30.738 176.079 30.5 175.491 30.248L 171.921 28.736C 171.221 28.456 170.535 28.092 169.863 27.644C 169.219 27.196 168.631 26.678 168.099 26.09C 167.595 25.474 167.189 24.774 166.881 23.99C 166.573 23.178 166.419 22.268 166.419 21.26C 166.419 20.14 166.657 19.09 167.133 18.11C 167.609 17.102 168.281 16.234 169.149 15.506C 170.017 14.75 171.039 14.162 172.215 13.742C 173.419 13.322 174.735 13.112 176.163 13.112C 177.759 13.112 179.327 13.42 180.867 14.036C 182.435 14.652 183.807 15.548 184.983 16.724L 181.833 20.63C 180.937 19.93 180.041 19.398 179.145 19.034C 178.249 18.642 177.255 18.446 176.163 18.446C 175.099 18.446 174.245 18.67 173.601 19.118C 172.985 19.538 172.677 20.14 172.677 20.924C 172.677 21.344 172.775 21.708 172.971 22.016C 173.195 22.296 173.489 22.562 173.853 22.814C 174.245 23.038 174.693 23.262 175.197 23.486C 175.701 23.682 176.247 23.906 176.835 24.158L 180.363 25.586C 182.043 26.258 183.359 27.182 184.311 28.358C 185.291 29.534 185.781 31.088 185.781 33.02C 185.781 34.168 185.543 35.26 185.067 36.296C 184.619 37.304 183.947 38.2 183.051 38.984C 182.183 39.74 181.105 40.356 179.817 40.832C 178.529 41.28 177.073 41.504 175.449 41.504C 173.657 41.504 171.865 41.182 170.073 40.538C 168.309 39.866 166.727 38.872 165.327 37.556L 168.855 33.314ZM 190.429 13.616L 207.565 13.616L 207.565 18.824L 196.603 18.824L 196.603 24.326L 205.927 24.326L 205.927 29.492L 196.603 29.492L 196.603 35.792L 207.985 35.792L 207.985 41L 190.429 41L 190.429 13.616Z"/>
<path id="path2_fill" d="M 3.486 13.532L 8.358 13.532L 8.358 26.006L 8.484 26.006L 18.27 13.532L 23.688 13.532L 15.246 24.242L 25.116 41L 19.74 41L 12.306 28.064L 8.358 32.978L 8.358 41L 3.486 41L 3.486 13.532ZM 28.5465 13.532L 33.5445 13.532L 42.1125 28.988L 44.9265 34.826L 45.0945 34.826C 44.9825 33.398 44.8425 31.872 44.6745 30.248C 44.5345 28.596 44.4645 27 44.4645 25.46L 44.4645 13.532L 49.1265 13.532L 49.1265 41L 44.1285 41L 35.5605 25.544L 32.7465 19.706L 32.5785 19.706C 32.6905 21.162 32.8165 22.688 32.9565 24.284C 33.1245 25.88 33.2085 27.448 33.2085 28.988L 33.2085 41L 28.5465 41L 28.5465 13.532ZM 66.777 41.504C 64.985 41.504 63.347 41.182 61.863 40.538C 60.379 39.866 59.105 38.914 58.041 37.682C 56.977 36.422 56.151 34.91 55.563 33.146C 54.975 31.382 54.681 29.38 54.681 27.14C 54.681 24.928 54.975 22.954 55.563 21.218C 56.151 19.454 56.977 17.97 58.041 16.766C 59.105 15.562 60.379 14.638 61.863 13.994C 63.347 13.35 64.985 13.028 66.777 13.028C 68.569 13.028 70.207 13.35 71.691 13.994C 73.175 14.638 74.449 15.562 75.513 16.766C 76.605 17.97 77.445 19.454 78.033 21.218C 78.621 22.954 78.915 24.928 78.915 27.14C 78.915 29.38 78.621 31.382 78.033 33.146C 77.445 34.91 76.605 36.422 75.513 37.682C 74.449 38.914 73.175 39.866 71.691 40.538C 70.207 41.182 68.569 41.504 66.777 41.504ZM 66.777 37.262C 67.869 37.262 68.849 37.024 69.717 36.548C 70.585 36.072 71.327 35.4 71.943 34.532C 72.559 33.636 73.035 32.572 73.371 31.34C 73.707 30.08 73.875 28.68 73.875 27.14C 73.875 24.06 73.231 21.652 71.943 19.916C 70.683 18.152 68.961 17.27 66.777 17.27C 64.593 17.27 62.857 18.152 61.569 19.916C 60.309 21.652 59.679 24.06 59.679 27.14C 59.679 28.68 59.847 30.08 60.183 31.34C 60.519 32.572 60.995 33.636 61.611 34.532C 62.227 35.4 62.969 36.072 63.837 36.548C 64.705 37.024 65.685 37.262 66.777 37.262ZM 81.5158 13.532L 86.5138 13.532L 88.9078 27.392C 89.1318 28.876 89.3558 30.346 89.5798 31.802C 89.8038 33.258 90.0278 34.714 90.2518 36.17L 90.4198 36.17C 90.7278 34.714 91.0218 33.258 91.3018 31.802C 91.6098 30.318 91.9178 28.848 92.2258 27.392L 95.5858 13.532L 99.8278 13.532L 103.188 27.392C 103.496 28.82 103.804 30.276 104.112 31.76C 104.42 33.216 104.728 34.686 105.036 36.17L 105.204 36.17C 105.428 34.686 105.638 33.216 105.834 31.76C 106.058 30.304 106.282 28.848 106.506 27.392L 108.9 13.532L 113.562 13.532L 108.312 41L 102.264 41L 98.8618 26.552C 98.6378 25.488 98.4138 24.438 98.1898 23.402C 97.9938 22.338 97.8118 21.274 97.6438 20.21L 97.4758 20.21C 97.2798 21.274 97.0698 22.338 96.8458 23.402C 96.6498 24.438 96.4398 25.488 96.2158 26.552L 92.8978 41L 86.9758 41L 81.5158 13.532Z"/>
</defs>
</svg>
