<svg width="1798" height="512" viewBox="0 0 1798 512" version="1.1" xmlns="http://www.w3.org/2000/svg" xmlns:xlink="http://www.w3.org/1999/xlink">
<title>Logo </title>
<desc>Created using Figma</desc>
<g id="Canvas" transform="matrix(10.8936 0 0 10.8936 2810.55 457.532)">
<g id="Logo ">
<g id="KNOW BD NEW" filter="url(#filter0_d)">
<use xlink:href="#path0_fill" transform="matrix(0.997564 -0.0697565 0.0697565 0.997564 -254 -34.9933)" fill="#424D64"/>
</g>
<g id="KNOWBASE" filter="url(#filter1_i)">
<use xlink:href="#path1_fill" transform="translate(-251.93 -43)" fill="#383838"/>
<use xlink:href="#path2_fill" transform="translate(-251.93 -43)" fill="#FFFFFF"/>
</g>
</g>
</g>
<defs>
<filter id="filter0_d" filterUnits="userSpaceOnUse" x="-258" y="-42" width="100" height="47" color-interpolation-filters="sRGB">
<feFlood flood-opacity="0" result="BackgroundImageFix"/>
<feColorMatrix in="SourceAlpha" type="matrix" values="0 0 0 0 0 0 0 0 0 0 0 0 0 0 0 0 0 0 255 0"/>
<feOffset dx="0" dy="4"/>
<feGaussianBlur stdDeviation="2"/>
<feColorMatrix type="matrix" values="0 0 0 0 0 0 0 0 0 0 0 0 0 0 0 0 0 0 0.25 0"/>
<feBlend mode="normal" in2="BackgroundImageFix" result="effect1_dropShadow"/>
<feBlend mode="normal" in="SourceGraphic" in2="effect1_dropShadow" result="shape"/>
</filter>
<filter id="filter1_i" filterUnits="userSpaceOnUse" x="-254" y="-34" width="165" height="27" color-interpolation-filters="sRGB">
<feFlood flood-opacity="0" result="BackgroundImageFix"/>
<feBlend mode="normal" in="SourceGraphic" in2="BackgroundImageFix" result="shape"/>
<feColorMatrix in="SourceAlpha" type="matrix" values="0 0 0 0 0 0 0 0 0 0 0 0 0 0 0 0 0 0 255 0" result="hardAlpha"/>
<feOffset dx="0" dy="4"/>
<feGaussianBlur stdDeviation="2"/>
<feComposite in2="hardAlpha" operator="arithmetic" k2="-1" k3="1"/>
<feColorMatrix type="matrix" values="0 0 0 0 0 0 0 0 0 0 0 0 0 0 0 0 0 0 0.25 0"/>
<feBlend mode="normal" in2="shape" result="effect1_innerShadow"/>
</filter>
<path id="path0_fill" d="M 0 0L 89.4051 0L 89.4051 31.4383L 0 31.4383L 0 0Z"/>
<path id="path1_fill" d="M 89.589 10.136L 96.725 10.136C 97.813 10.136 98.8157 10.2213 99.733 10.392C 100.672 10.5413 101.482 10.8187 102.165 11.224C 102.869 11.6293 103.413 12.1627 103.797 12.824C 104.202 13.4853 104.405 14.3173 104.405 15.32C 104.405 15.7893 104.33 16.2587 104.181 16.728C 104.053 17.1973 103.85 17.6347 103.573 18.04C 103.296 18.4453 102.933 18.808 102.485 19.128C 102.037 19.448 101.514 19.6827 100.917 19.832L 100.917 19.96C 102.41 20.2373 103.53 20.7707 104.277 21.56C 105.045 22.3493 105.429 23.448 105.429 24.856C 105.429 25.9227 105.216 26.84 104.789 27.608C 104.384 28.376 103.808 29.016 103.061 29.528C 102.336 30.0187 101.482 30.392 100.501 30.648C 99.5197 30.8827 98.4637 31 97.333 31L 89.589 31L 89.589 10.136ZM 96.501 18.552C 97.653 18.552 98.485 18.328 98.997 17.88C 99.5303 17.4107 99.797 16.7813 99.797 15.992C 99.797 15.2027 99.5303 14.6373 98.997 14.296C 98.4637 13.9547 97.6423 13.784 96.533 13.784L 94.293 13.784L 94.293 18.552L 96.501 18.552ZM 96.949 27.352C 99.5303 27.352 100.821 26.4027 100.821 24.504C 100.821 23.5867 100.501 22.9253 99.861 22.52C 99.221 22.0933 98.2503 21.88 96.949 21.88L 94.293 21.88L 94.293 27.352L 96.949 27.352ZM 117.796 22.36L 117.316 20.44C 117.017 19.3947 116.729 18.2853 116.452 17.112C 116.175 15.9387 115.897 14.808 115.62 13.72L 115.492 13.72C 115.236 14.8293 114.969 15.9707 114.692 17.144C 114.436 18.296 114.159 19.3947 113.86 20.44L 113.348 22.36L 117.796 22.36ZM 118.756 26.04L 112.388 26.04L 111.108 31L 106.308 31L 112.836 10.136L 118.5 10.136L 125.028 31L 120.036 31L 118.756 26.04ZM 128.652 25.144C 129.398 25.784 130.22 26.3067 131.116 26.712C 132.033 27.1173 132.929 27.32 133.804 27.32C 134.785 27.32 135.51 27.1387 135.98 26.776C 136.47 26.4133 136.716 25.9227 136.716 25.304C 136.716 24.984 136.641 24.7067 136.492 24.472C 136.364 24.2373 136.161 24.0347 135.884 23.864C 135.628 23.672 135.308 23.5013 134.924 23.352C 134.561 23.1813 134.156 23 133.708 22.808L 130.988 21.656C 130.454 21.4427 129.932 21.1653 129.42 20.824C 128.929 20.4827 128.481 20.088 128.076 19.64C 127.692 19.1707 127.382 18.6373 127.148 18.04C 126.913 17.4213 126.796 16.728 126.796 15.96C 126.796 15.1067 126.977 14.3067 127.34 13.56C 127.702 12.792 128.214 12.1307 128.876 11.576C 129.537 11 130.316 10.552 131.212 10.232C 132.129 9.912 133.132 9.752 134.22 9.752C 135.436 9.752 136.63 9.98667 137.804 10.456C 138.998 10.9253 140.044 11.608 140.94 12.504L 138.54 15.48C 137.857 14.9467 137.174 14.5413 136.492 14.264C 135.809 13.9653 135.052 13.816 134.22 13.816C 133.409 13.816 132.758 13.9867 132.268 14.328C 131.798 14.648 131.564 15.1067 131.564 15.704C 131.564 16.024 131.638 16.3013 131.788 16.536C 131.958 16.7493 132.182 16.952 132.46 17.144C 132.758 17.3147 133.1 17.4853 133.484 17.656C 133.868 17.8053 134.284 17.976 134.732 18.168L 137.42 19.256C 138.7 19.768 139.702 20.472 140.428 21.368C 141.174 22.264 141.548 23.448 141.548 24.92C 141.548 25.7947 141.366 26.6267 141.004 27.416C 140.662 28.184 140.15 28.8667 139.468 29.464C 138.806 30.04 137.985 30.5093 137.004 30.872C 136.022 31.2133 134.913 31.384 133.676 31.384C 132.31 31.384 130.945 31.1387 129.58 30.648C 128.236 30.136 127.03 29.3787 125.964 28.376L 128.652 25.144ZM 145.089 10.136L 158.145 10.136L 158.145 14.104L 149.793 14.104L 149.793 18.296L 156.897 18.296L 156.897 22.232L 149.793 22.232L 149.793 27.032L 158.465 27.032L 158.465 31L 145.089 31L 145.089 10.136Z"/>
<path id="path2_fill" d="M 2.656 10.072L 6.368 10.072L 6.368 19.576L 6.464 19.576L 13.92 10.072L 18.048 10.072L 11.616 18.232L 19.136 31L 15.04 31L 9.376 21.144L 6.368 24.888L 6.368 31L 2.656 31L 2.656 10.072ZM 21.7497 10.072L 25.5578 10.072L 32.0857 21.848L 34.2297 26.296L 34.3577 26.296C 34.2724 25.208 34.1657 24.0453 34.0378 22.808C 33.9311 21.5493 33.8778 20.3333 33.8778 19.16L 33.8778 10.072L 37.4298 10.072L 37.4298 31L 33.6217 31L 27.0938 19.224L 24.9497 14.776L 24.8218 14.776C 24.9071 15.8853 25.0031 17.048 25.1097 18.264C 25.2378 19.48 25.3018 20.6747 25.3018 21.848L 25.3018 31L 21.7497 31L 21.7497 10.072ZM 50.8778 31.384C 49.5124 31.384 48.2644 31.1387 47.1337 30.648C 46.0031 30.136 45.0324 29.4107 44.2217 28.472C 43.4111 27.512 42.7817 26.36 42.3338 25.016C 41.8858 23.672 41.6617 22.1467 41.6617 20.44C 41.6617 18.7547 41.8858 17.2507 42.3338 15.928C 42.7817 14.584 43.4111 13.4533 44.2217 12.536C 45.0324 11.6187 46.0031 10.9147 47.1337 10.424C 48.2644 9.93333 49.5124 9.688 50.8778 9.688C 52.2431 9.688 53.4911 9.93333 54.6217 10.424C 55.7524 10.9147 56.7231 11.6187 57.5338 12.536C 58.3657 13.4533 59.0058 14.584 59.4538 15.928C 59.9018 17.2507 60.1257 18.7547 60.1257 20.44C 60.1257 22.1467 59.9018 23.672 59.4538 25.016C 59.0058 26.36 58.3657 27.512 57.5338 28.472C 56.7231 29.4107 55.7524 30.136 54.6217 30.648C 53.4911 31.1387 52.2431 31.384 50.8778 31.384ZM 50.8778 28.152C 51.7098 28.152 52.4564 27.9707 53.1178 27.608C 53.7791 27.2453 54.3444 26.7333 54.8138 26.072C 55.2831 25.3893 55.6458 24.5787 55.9017 23.64C 56.1577 22.68 56.2857 21.6133 56.2857 20.44C 56.2857 18.0933 55.7951 16.2587 54.8138 14.936C 53.8538 13.592 52.5417 12.92 50.8778 12.92C 49.2137 12.92 47.8911 13.592 46.9097 14.936C 45.9497 16.2587 45.4697 18.0933 45.4697 20.44C 45.4697 21.6133 45.5978 22.68 45.8538 23.64C 46.1097 24.5787 46.4724 25.3893 46.9418 26.072C 47.4111 26.7333 47.9764 27.2453 48.6377 27.608C 49.2991 27.9707 50.0457 28.152 50.8778 28.152ZM 62.1072 10.072L 65.9152 10.072L 67.7393 20.632C 67.9099 21.7627 68.0806 22.8827 68.2512 23.992C 68.4219 25.1013 68.5926 26.2107 68.7632 27.32L 68.8913 27.32C 69.1259 26.2107 69.3499 25.1013 69.5632 23.992C 69.7979 22.8613 70.0326 21.7413 70.2673 20.632L 72.8272 10.072L 76.0592 10.072L 78.6192 20.632C 78.8539 21.72 79.0886 22.8293 79.3232 23.96C 79.5579 25.0693 79.7926 26.1893 80.0273 27.32L 80.1553 27.32C 80.3259 26.1893 80.4859 25.0693 80.6353 23.96C 80.8059 22.8507 80.9766 21.7413 81.1472 20.632L 82.9713 10.072L 86.5233 10.072L 82.5233 31L 77.9153 31L 75.3232 19.992C 75.1526 19.1813 74.9819 18.3813 74.8112 17.592C 74.6619 16.7813 74.5232 15.9707 74.3953 15.16L 74.2673 15.16C 74.1179 15.9707 73.9579 16.7813 73.7872 17.592C 73.6379 18.3813 73.4779 19.1813 73.3073 19.992L 70.7793 31L 66.2673 31L 62.1072 10.072Z"/>
</defs>
</svg>
