<svg width="512" height="148" viewBox="0 0 512 148" version="1.1" xmlns="http://www.w3.org/2000/svg" xmlns:xlink="http://www.w3.org/1999/xlink">
<title>Text</title>
<desc>Created using Figma</desc>
<g id="Canvas" transform="matrix(2.58586 0 0 2.58586 1148.12 431.838)">
<g id="Text">
<g id="Logo ">
<g id="KNOW BD NEW" filter="url(#filter0_d)">
<use xlink:href="#path0_fill" transform="matrix(0.997564 -0.0697565 0.0697565 0.997564 -439.971 -158.362)" fill="#526C7B"/>
</g>
<g id="KNOW" filter="url(#filter1_d)">
<use xlink:href="#path1_fill" transform="translate(-437 -170)" fill="#FFFFFF"/>
</g>
<g id="BASE" filter="url(#filter2_d)">
<use xlink:href="#path2_fill" transform="translate(-320 -164)" fill="#56CCF2"/>
</g>
</g>
</g>
</g>
<defs>
<filter id="filter0_d" filterUnits="userSpaceOnUse" x="-444" y="-167" width="129" height="57" color-interpolation-filters="sRGB">
<feFlood flood-opacity="0" result="BackgroundImageFix"/>
<feColorMatrix in="SourceAlpha" type="matrix" values="0 0 0 0 0 0 0 0 0 0 0 0 0 0 0 0 0 0 255 0"/>
<feOffset dx="0" dy="4"/>
<feGaussianBlur stdDeviation="2"/>
<feColorMatrix type="matrix" values="0 0 0 0 0 0 0 0 0 0 0 0 0 0 0 0 0 0 0.22 0"/>
<feBlend mode="normal" in2="BackgroundImageFix" result="effect1_dropShadow"/>
<feBlend mode="normal" in="SourceGraphic" in2="effect1_dropShadow" result="shape"/>
</filter>
<filter id="filter1_d" filterUnits="userSpaceOnUse" x="-438" y="-157" width="119" height="37" color-interpolation-filters="sRGB">
<feFlood flood-opacity="0" result="BackgroundImageFix"/>
<feColorMatrix in="SourceAlpha" type="matrix" values="0 0 0 0 0 0 0 0 0 0 0 0 0 0 0 0 0 0 255 0"/>
<feOffset dx="0" dy="4"/>
<feGaussianBlur stdDeviation="2"/>
<feColorMatrix type="matrix" values="0 0 0 0 0 0 0 0 0 0 0 0 0 0 0 0 0 0 0.25 0"/>
<feBlend mode="normal" in2="BackgroundImageFix" result="effect1_dropShadow"/>
<feBlend mode="normal" in="SourceGraphic" in2="effect1_dropShadow" result="shape"/>
</filter>
<filter id="filter2_d" filterUnits="userSpaceOnUse" x="-322" y="-154" width="76" height="32" color-interpolation-filters="sRGB">
<feFlood flood-opacity="0" result="BackgroundImageFix"/>
<feColorMatrix in="SourceAlpha" type="matrix" values="0 0 0 0 0 0 0 0 0 0 0 0 0 0 0 0 0 0 255 0"/>
<feOffset dx="0" dy="4"/>
<feGaussianBlur stdDeviation="2"/>
<feColorMatrix type="matrix" values="0 0 0 0 0 0 0 0 0 0 0 0 0 0 0 0 0 0 0.25 0"/>
<feBlend mode="normal" in2="BackgroundImageFix" result="effect1_dropShadow"/>
<feBlend mode="normal" in="SourceGraphic" in2="effect1_dropShadow" result="shape"/>
</filter>
<path id="path0_fill" d="M 0 0L 117.896 0L 117.896 40.1852L 0 40.1852L 0 0Z"/>
<path id="path1_fill" d="M 3.486 13.532L 8.358 13.532L 8.358 26.006L 8.484 26.006L 18.27 13.532L 23.688 13.532L 15.246 24.242L 25.116 41L 19.74 41L 12.306 28.064L 8.358 32.978L 8.358 41L 3.486 41L 3.486 13.532ZM 28.5465 13.532L 33.5445 13.532L 42.1125 28.988L 44.9265 34.826L 45.0945 34.826C 44.9825 33.398 44.8425 31.872 44.6745 30.248C 44.5345 28.596 44.4645 27 44.4645 25.46L 44.4645 13.532L 49.1265 13.532L 49.1265 41L 44.1285 41L 35.5605 25.544L 32.7465 19.706L 32.5785 19.706C 32.6905 21.162 32.8165 22.688 32.9565 24.284C 33.1245 25.88 33.2085 27.448 33.2085 28.988L 33.2085 41L 28.5465 41L 28.5465 13.532ZM 66.777 41.504C 64.985 41.504 63.347 41.182 61.863 40.538C 60.379 39.866 59.105 38.914 58.041 37.682C 56.977 36.422 56.151 34.91 55.563 33.146C 54.975 31.382 54.681 29.38 54.681 27.14C 54.681 24.928 54.975 22.954 55.563 21.218C 56.151 19.454 56.977 17.97 58.041 16.766C 59.105 15.562 60.379 14.638 61.863 13.994C 63.347 13.35 64.985 13.028 66.777 13.028C 68.569 13.028 70.207 13.35 71.691 13.994C 73.175 14.638 74.449 15.562 75.513 16.766C 76.605 17.97 77.445 19.454 78.033 21.218C 78.621 22.954 78.915 24.928 78.915 27.14C 78.915 29.38 78.621 31.382 78.033 33.146C 77.445 34.91 76.605 36.422 75.513 37.682C 74.449 38.914 73.175 39.866 71.691 40.538C 70.207 41.182 68.569 41.504 66.777 41.504ZM 66.777 37.262C 67.869 37.262 68.849 37.024 69.717 36.548C 70.585 36.072 71.327 35.4 71.943 34.532C 72.559 33.636 73.035 32.572 73.371 31.34C 73.707 30.08 73.875 28.68 73.875 27.14C 73.875 24.06 73.231 21.652 71.943 19.916C 70.683 18.152 68.961 17.27 66.777 17.27C 64.593 17.27 62.857 18.152 61.569 19.916C 60.309 21.652 59.679 24.06 59.679 27.14C 59.679 28.68 59.847 30.08 60.183 31.34C 60.519 32.572 60.995 33.636 61.611 34.532C 62.227 35.4 62.969 36.072 63.837 36.548C 64.705 37.024 65.685 37.262 66.777 37.262ZM 81.5158 13.532L 86.5138 13.532L 88.9078 27.392C 89.1318 28.876 89.3558 30.346 89.5798 31.802C 89.8038 33.258 90.0278 34.714 90.2518 36.17L 90.4198 36.17C 90.7278 34.714 91.0218 33.258 91.3018 31.802C 91.6098 30.318 91.9178 28.848 92.2258 27.392L 95.5858 13.532L 99.8278 13.532L 103.188 27.392C 103.496 28.82 103.804 30.276 104.112 31.76C 104.42 33.216 104.728 34.686 105.036 36.17L 105.204 36.17C 105.428 34.686 105.638 33.216 105.834 31.76C 106.058 30.304 106.282 28.848 106.506 27.392L 108.9 13.532L 113.562 13.532L 108.312 41L 102.264 41L 98.8618 26.552C 98.6378 25.488 98.4138 24.438 98.1898 23.402C 97.9938 22.338 97.8118 21.274 97.6438 20.21L 97.4758 20.21C 97.2798 21.274 97.0698 22.338 96.8458 23.402C 96.6498 24.438 96.4398 25.488 96.2158 26.552L 92.8978 41L 86.9758 41L 81.5158 13.532Z"/>
<path id="path2_fill" d="M 2.822 10.764L 9.928 10.764C 11.084 10.764 12.138 10.866 13.09 11.07C 14.0647 11.2513 14.9033 11.5573 15.606 11.988C 16.3313 12.396 16.8867 12.9513 17.272 13.654C 17.68 14.3567 17.884 15.218 17.884 16.238C 17.884 17.3033 17.5667 18.2893 16.932 19.196C 16.32 20.1027 15.368 20.726 14.076 21.066L 14.076 21.202C 15.6853 21.474 16.9093 22.052 17.748 22.936C 18.6093 23.7973 19.04 24.976 19.04 26.472C 19.04 27.5827 18.8247 28.546 18.394 29.362C 17.9633 30.178 17.3627 30.858 16.592 31.402C 15.844 31.946 14.9487 32.354 13.906 32.626C 12.8633 32.8753 11.73 33 10.506 33L 2.822 33L 2.822 10.764ZM 9.588 19.978C 11.152 19.978 12.274 19.6947 12.954 19.128C 13.6567 18.5613 14.008 17.7567 14.008 16.714C 14.008 15.694 13.6453 14.9573 12.92 14.504C 12.1947 14.0507 11.1067 13.824 9.656 13.824L 6.766 13.824L 6.766 19.978L 9.588 19.978ZM 10.098 29.94C 11.73 29.94 12.988 29.634 13.872 29.022C 14.756 28.41 15.198 27.4693 15.198 26.2C 15.198 25.044 14.7673 24.194 13.906 23.65C 13.0447 23.0833 11.7753 22.8 10.098 22.8L 6.766 22.8L 6.766 29.94L 10.098 29.94ZM 30.8611 23.888L 30.0791 21.168C 29.7164 19.9893 29.3651 18.7767 29.0251 17.53C 28.7078 16.2833 28.3904 15.048 28.0731 13.824L 27.9371 13.824C 27.6198 15.0707 27.3024 16.3173 26.9851 17.564C 26.6678 18.788 26.3278 19.9893 25.9651 21.168L 25.1831 23.888L 30.8611 23.888ZM 31.7451 26.982L 24.2651 26.982L 22.5311 33L 18.5191 33L 25.7611 10.764L 30.3851 10.764L 37.6271 33L 33.4791 33L 31.7451 26.982ZM 39.4501 27.458C 40.2434 28.206 41.1501 28.818 42.1701 29.294C 43.1901 29.7473 44.2101 29.974 45.2301 29.974C 46.4994 29.974 47.4628 29.7133 48.1201 29.192C 48.7774 28.6707 49.1061 27.9793 49.1061 27.118C 49.1061 26.6647 49.0154 26.2793 48.8341 25.962C 48.6754 25.6447 48.4374 25.3727 48.1201 25.146C 47.8254 24.8967 47.4628 24.67 47.0321 24.466C 46.6241 24.262 46.1708 24.058 45.6721 23.854L 42.6121 22.528C 42.0681 22.3013 41.5241 22.018 40.9801 21.678C 40.4588 21.338 39.9828 20.93 39.5521 20.454C 39.1214 19.978 38.7701 19.4227 38.4981 18.788C 38.2488 18.1533 38.1241 17.428 38.1241 16.612C 38.1241 15.728 38.3054 14.912 38.6681 14.164C 39.0534 13.3933 39.5748 12.7247 40.2321 12.158C 40.8894 11.5913 41.6714 11.1493 42.5781 10.832C 43.5074 10.5147 44.5161 10.356 45.6041 10.356C 46.8961 10.356 48.1428 10.6167 49.3441 11.138C 50.5454 11.6367 51.5768 12.3167 52.4381 13.178L 50.4321 15.694C 49.7068 15.1047 48.9588 14.64 48.1881 14.3C 47.4174 13.96 46.5561 13.79 45.6041 13.79C 44.5388 13.79 43.6888 14.028 43.0541 14.504C 42.4194 14.9573 42.1021 15.592 42.1021 16.408C 42.1021 16.8387 42.1928 17.2127 42.3741 17.53C 42.5781 17.8247 42.8388 18.0967 43.1561 18.346C 43.4961 18.5727 43.8814 18.788 44.3121 18.992C 44.7428 19.1733 45.1848 19.3547 45.6381 19.536L 48.6641 20.794C 49.3214 21.066 49.9221 21.3833 50.4661 21.746C 51.0101 22.1087 51.4748 22.528 51.8601 23.004C 52.2681 23.48 52.5854 24.0353 52.8121 24.67C 53.0388 25.282 53.1521 25.996 53.1521 26.812C 53.1521 27.7187 52.9708 28.5687 52.6081 29.362C 52.2454 30.1553 51.7128 30.858 51.0101 31.47C 50.3301 32.0593 49.4914 32.5353 48.4941 32.898C 47.5194 33.238 46.4088 33.408 45.1621 33.408C 43.6661 33.408 42.2154 33.1247 40.8101 32.558C 39.4274 31.9913 38.2034 31.1867 37.1381 30.144L 39.4501 27.458ZM 55.4954 10.764L 68.8914 10.764L 68.8914 14.096L 59.4394 14.096L 59.4394 19.774L 67.4294 19.774L 67.4294 23.106L 59.4394 23.106L 59.4394 29.668L 69.2314 29.668L 69.2314 33L 55.4954 33L 55.4954 10.764Z"/>
</defs>
</svg>
